solid HarmonyArch
  facet normal 0 -1 0
    outer loop
      vertex 0 0 0
      vertex 10 0 0
      vertex 0 0 3
    endloop
  endfacet
  facet normal 0 -1 0
    outer loop
      vertex 10 0 0
      vertex 10 0 3
      vertex 0 0 3
    endloop
  endfacet
  facet normal 0 1 -0
    outer loop
      vertex 10 0.5 0
      vertex 0 0.5 0
      vertex 10 0.5 3
    endloop
  endfacet
  facet normal 0 1 0
    outer loop
      vertex 0 0.5 0
      vertex 0 0.5 3
      vertex 10 0.5 3
    endloop
  endfacet
  facet normal -1 0 0
    outer loop
      vertex 0 0.5 0
      vertex 0 0 0
      vertex 0 0.5 3
    endloop
  endfacet
  facet normal -1 0 0
    outer loop
      vertex 0 0 0
      vertex 0 0 3
      vertex 0 0.5 3
    endloop
  endfacet
  facet normal 1 0 0
    outer loop
      vertex 10 0 0
      vertex 10 0.5 0
      vertex 10 0 3
    endloop
  endfacet
  facet normal 1 0 -0
    outer loop
      vertex 10 0.5 0
      vertex 10 0.5 3
      vertex 10 0 3
    endloop
  endfacet
  facet normal 0 0 -1
    outer loop
      vertex 0 0.5 0
      vertex 10 0.5 0
      vertex 0 0 0
    endloop
  endfacet
  facet normal 0 -0 -1
    outer loop
      vertex 10 0.5 0
      vertex 10 0 0
      vertex 0 0 0
    endloop
  endfacet
  facet normal 0 0 1
    outer loop
      vertex 0 0 3
      vertex 10 0 3
      vertex 0 0.5 3
    endloop
  endfacet
  facet normal 0 -0 1
    outer loop
      vertex 10 0 3
      vertex 10 0.5 3
      vertex 0 0.5 3
    endloop
  endfacet
  facet normal 1 0 0
    outer loop
      vertex 14.25 -3.75 0
      vertex 14.25 4.25 0
      vertex 14.25 -3.75 3
    endloop
  endfacet
  facet normal 1 0 -0
    outer loop
      vertex 14.25 4.25 0
      vertex 14.25 4.25 3
      vertex 14.25 -3.75 3
    endloop
  endfacet
  facet normal -1 0 0
    outer loop
      vertex 13.75 4.25 0
      vertex 13.75 -3.75 0
      vertex 13.75 4.25 3
    endloop
  endfacet
  facet normal -1 0 0
    outer loop
      vertex 13.75 -3.75 0
      vertex 13.75 -3.75 3
      vertex 13.75 4.25 3
    endloop
  endfacet
  facet normal 0 -1 0
    outer loop
      vertex 13.75 -3.75 0
      vertex 14.25 -3.75 0
      vertex 13.75 -3.75 3
    endloop
  endfacet
  facet normal 0 -1 0
    outer loop
      vertex 14.25 -3.75 0
      vertex 14.25 -3.75 3
      vertex 13.75 -3.75 3
    endloop
  endfacet
  facet normal 0 1 -0
    outer loop
      vertex 14.25 4.25 0
      vertex 13.75 4.25 0
      vertex 14.25 4.25 3
    endloop
  endfacet
  facet normal 0 1 0
    outer loop
      vertex 13.75 4.25 0
      vertex 13.75 4.25 3
      vertex 14.25 4.25 3
    endloop
  endfacet
  facet normal 0 0 -1
    outer loop
      vertex 13.75 -3.75 0
      vertex 13.75 4.25 0
      vertex 14.25 -3.75 0
    endloop
  endfacet
  facet normal 0 0 -1
    outer loop
      vertex 13.75 4.25 0
      vertex 14.25 4.25 0
      vertex 14.25 -3.75 0
    endloop
  endfacet
  facet normal 0 -0 1
    outer loop
      vertex 14.25 -3.75 3
      vertex 14.25 4.25 3
      vertex 13.75 -3.75 3
    endloop
  endfacet
  facet normal 0 0 1
    outer loop
      vertex 14.25 4.25 3
      vertex 13.75 4.25 3
      vertex 13.75 -3.75 3
    endloop
  endfacet
  facet normal 0 -1 0
    outer loop
      vertex 3 0 0
      vertex 5 0 0
      vertex 3 0 2.5
    endloop
  endfacet
  facet normal 0 -1 0
    outer loop
      vertex 5 0 0
      vertex 5 0 2.5
      vertex 3 0 2.5
    endloop
  endfacet
  facet normal 0 1 -0
    outer loop
      vertex 5 0.3 0
      vertex 3 0.3 0
      vertex 5 0.3 2.5
    endloop
  endfacet
  facet normal 0 1 0
    outer loop
      vertex 3 0.3 0
      vertex 3 0.3 2.5
      vertex 5 0.3 2.5
    endloop
  endfacet
  facet normal -1 0 0
    outer loop
      vertex 3 0.3 0
      vertex 3 0 0
      vertex 3 0.3 2.5
    endloop
  endfacet
  facet normal -1 0 0
    outer loop
      vertex 3 0 0
      vertex 3 0 2.5
      vertex 3 0.3 2.5
    endloop
  endfacet
  facet normal 1 0 0
    outer loop
      vertex 5 0 0
      vertex 5 0.3 0
      vertex 5 0 2.5
    endloop
  endfacet
  facet normal 1 0 -0
    outer loop
      vertex 5 0.3 0
      vertex 5 0.3 2.5
      vertex 5 0 2.5
    endloop
  endfacet
  facet normal 0 0 -1
    outer loop
      vertex 3 0.3 0
      vertex 5 0.3 0
      vertex 3 0 0
    endloop
  endfacet
  facet normal 0 -0 -1
    outer loop
      vertex 5 0.3 0
      vertex 5 0 0
      vertex 3 0 0
    endloop
  endfacet
  facet normal 0 0 1
    outer loop
      vertex 3 0 2.5
      vertex 5 0 2.5
      vertex 3 0.3 2.5
    endloop
  endfacet
  facet normal 0 -0 1
    outer loop
      vertex 5 0 2.5
      vertex 5 0.3 2.5
      vertex 3 0.3 2.5
    endloop
  endfacet
  facet normal 0 -1 0
    outer loop
      vertex 7 0 1
      vertex 10 0 1
      vertex 7 0 2.5
    endloop
  endfacet
  facet normal 0 -1 0
    outer loop
      vertex 10 0 1
      vertex 10 0 2.5
      vertex 7 0 2.5
    endloop
  endfacet
  facet normal 0 1 -0
    outer loop
      vertex 10 0.2 1
      vertex 7 0.2 1
      vertex 10 0.2 2.5
    endloop
  endfacet
  facet normal 0 1 0
    outer loop
      vertex 7 0.2 1
      vertex 7 0.2 2.5
      vertex 10 0.2 2.5
    endloop
  endfacet
  facet normal -1 0 0
    outer loop
      vertex 7 0.2 1
      vertex 7 0 1
      vertex 7 0.2 2.5
    endloop
  endfacet
  facet normal -1 0 0
    outer loop
      vertex 7 0 1
      vertex 7 0 2.5
      vertex 7 0.2 2.5
    endloop
  endfacet
  facet normal 1 0 0
    outer loop
      vertex 10 0 1
      vertex 10 0.2 1
      vertex 10 0 2.5
    endloop
  endfacet
  facet normal 1 0 -0
    outer loop
      vertex 10 0.2 1
      vertex 10 0.2 2.5
      vertex 10 0 2.5
    endloop
  endfacet
  facet normal 0 0 -1
    outer loop
      vertex 7 0.2 1
      vertex 10 0.2 1
      vertex 7 0 1
    endloop
  endfacet
  facet normal 0 -0 -1
    outer loop
      vertex 10 0.2 1
      vertex 10 0 1
      vertex 7 0 1
    endloop
  endfacet
  facet normal 0 0 1
    outer loop
      vertex 7 0 2.5
      vertex 10 0 2.5
      vertex 7 0.2 2.5
    endloop
  endfacet
  facet normal 0 -0 1
    outer loop
      vertex 10 0 2.5
      vertex 10 0.2 2.5
      vertex 7 0.2 2.5
    endloop
  endfacet
  facet normal 0 -1 0
    outer loop
      vertex 5 -0.1 0
      vertex 15 -0.1 0
      vertex 5 -0.1 8
    endloop
  endfacet
  facet normal 0 -1 0
    outer loop
      vertex 15 -0.1 0
      vertex 15 -0.1 8
      vertex 5 -0.1 8
    endloop
  endfacet
  facet normal 0 1 -0
    outer loop
      vertex 15 0.4 0
      vertex 5 0.4 0
      vertex 15 0.4 8
    endloop
  endfacet
  facet normal 0 1 0
    outer loop
      vertex 5 0.4 0
      vertex 5 0.4 8
      vertex 15 0.4 8
    endloop
  endfacet
  facet normal -1 0 0
    outer loop
      vertex 5 0.4 0
      vertex 5 -0.1 0
      vertex 5 0.4 8
    endloop
  endfacet
  facet normal -1 0 0
    outer loop
      vertex 5 -0.1 0
      vertex 5 -0.1 8
      vertex 5 0.4 8
    endloop
  endfacet
  facet normal 1 0 0
    outer loop
      vertex 15 -0.1 0
      vertex 15 0.4 0
      vertex 15 -0.1 8
    endloop
  endfacet
  facet normal 1 0 -0
    outer loop
      vertex 15 0.4 0
      vertex 15 0.4 8
      vertex 15 -0.1 8
    endloop
  endfacet
  facet normal 0 0 -1
    outer loop
      vertex 5 0.4 0
      vertex 15 0.4 0
      vertex 5 -0.1 0
    endloop
  endfacet
  facet normal 0 -0 -1
    outer loop
      vertex 15 0.4 0
      vertex 15 -0.1 0
      vertex 5 -0.1 0
    endloop
  endfacet
  facet normal 0 0 1
    outer loop
      vertex 5 -0.1 8
      vertex 15 -0.1 8
      vertex 5 0.4 8
    endloop
  endfacet
  facet normal 0 -0 1
    outer loop
      vertex 15 -0.1 8
      vertex 15 0.4 8
      vertex 5 0.4 8
    endloop
  endfacet
  facet normal 0 -1 0
    outer loop
      vertex 5 5 0
      vertex 6 5 0
      vertex 5 5 3
    endloop
  endfacet
  facet normal 0 -1 0
    outer loop
      vertex 6 5 0
      vertex 6 5 3
      vertex 5 5 3
    endloop
  endfacet
  facet normal 0 1 -0
    outer loop
      vertex 6 5.5 0
      vertex 5 5.5 0
      vertex 6 5.5 3
    endloop
  endfacet
  facet normal 0 1 0
    outer loop
      vertex 5 5.5 0
      vertex 5 5.5 3
      vertex 6 5.5 3
    endloop
  endfacet
  facet normal -1 0 0
    outer loop
      vertex 5 5.5 0
      vertex 5 5 0
      vertex 5 5.5 3
    endloop
  endfacet
  facet normal -1 0 0
    outer loop
      vertex 5 5 0
      vertex 5 5 3
      vertex 5 5.5 3
    endloop
  endfacet
  facet normal 1 0 0
    outer loop
      vertex 6 5 0
      vertex 6 5.5 0
      vertex 6 5 3
    endloop
  endfacet
  facet normal 1 0 -0
    outer loop
      vertex 6 5.5 0
      vertex 6 5.5 3
      vertex 6 5 3
    endloop
  endfacet
  facet normal 0 0 -1
    outer loop
      vertex 5 5.5 0
      vertex 6 5.5 0
      vertex 5 5 0
    endloop
  endfacet
  facet normal 0 -0 -1
    outer loop
      vertex 6 5.5 0
      vertex 6 5 0
      vertex 5 5 0
    endloop
  endfacet
  facet normal 0 0 1
    outer loop
      vertex 5 5 3
      vertex 6 5 3
      vertex 5 5.5 3
    endloop
  endfacet
  facet normal 0 -0 1
    outer loop
      vertex 6 5 3
      vertex 6 5.5 3
      vertex 5 5.5 3
    endloop
  endfacet
endsolid HarmonyArch
